<svg width="360" height="200" viewBox="0 0 360 200" fill="none" xmlns="http://www.w3.org/2000/svg">
<title>Hi-fi — рисованная иллюстрация-леттеринг</title>
<path d="M39.745 126.401C39.745 126.394 39.745 126.386 39.7362 130.249C39.7274 134.112 39.7098 141.845 39.7838 146.251C39.8577 150.657 40.0238 151.501 40.195 152.37" stroke="black" stroke-opacity="0.87" stroke-width="2.51713" stroke-linecap="round"/>
<path d="M39.9368 137.445C39.9368 137.453 39.9367 137.46 41.924 137.472C43.9112 137.485 47.8857 137.502 50.16 137.539C52.888 137.633 53.796 137.698 54.6761 137.714C55.1158 137.724 55.5411 137.735 55.9794 137.747" stroke="black" stroke-opacity="0.87" stroke-width="2.51713" stroke-linecap="round"/>
<path d="M54.6985 125.823C54.6985 125.84 54.6984 125.857 54.7017 129.531C54.7049 133.205 54.7113 140.535 54.7447 144.682C54.7781 148.829 54.8383 149.57 54.8339 150.368" stroke="black" stroke-opacity="0.87" stroke-width="2.51713" stroke-linecap="round"/>
<path d="M62.699 134.232C62.699 134.243 62.6989 134.253 62.6966 136.169C62.6943 138.086 62.6896 141.908 62.7456 144.064C62.8017 146.221 62.9186 146.597 63.039 146.985" stroke="black" stroke-opacity="0.87" stroke-width="2.51713" stroke-linecap="round"/>
<path d="M63.0513 128.392C63.0512 128.407 63.2563 128.468 63.6588 128.515C63.8549 128.538 64.0397 128.442 64.0549 128.357C63.9112 128.169 63.5517 127.992 63.1565 127.86C62.9573 127.799 62.7606 127.752 62.2311 128.066" stroke="black" stroke-opacity="0.87" stroke-width="2.51713" stroke-linecap="round"/>
<path d="M70.8151 141.011C70.8069 140.995 70.7988 140.978 71.9734 140.963C73.1479 140.948 75.5055 140.934 77.9813 140.815" stroke="black" stroke-opacity="0.87" stroke-width="2.51713" stroke-linecap="round"/>
<path d="M90.0771 127.266C89.1106 127.295 86.7321 127.515 85.9755 128.226C85.556 128.62 85.4091 129.358 85.1636 132.895C84.9448 136.047 84.8709 141.973 84.8076 145.162C84.7444 148.35 84.7798 148.625 84.8504 148.916C84.9209 149.206 85.0254 149.503 85.3664 150.227" stroke="black" stroke-opacity="0.87" stroke-width="2.51713" stroke-linecap="round"/>
<path d="M80.9502 134.499L88.157 134.507" stroke="black" stroke-opacity="0.87" stroke-width="2.51713" stroke-linecap="round"/>
<path d="M93.9673 133.105L93.9457 150.798" stroke="black" stroke-opacity="0.87" stroke-width="2.51713" stroke-linecap="round"/>
<path d="M94.4168 127.699C94.5759 127.746 95.1364 127.836 95.3233 127.794C95.5522 127.741 94.6652 127.601 94.2484 127.683C94.0766 127.765 93.9855 127.929 93.9661 128.111C93.9467 128.293 94.0018 128.488 94.2164 128.898" stroke="black" stroke-opacity="0.87" stroke-width="2.51713" stroke-linecap="round"/>
<path d="M127.17 133.582C127.169 133.75 127.169 133.917 127.23 136.258C127.29 138.599 127.411 143.108 127.494 145.572C127.576 148.037 127.617 148.32 127.73 148.785" stroke="black" stroke-opacity="0.87" stroke-width="2.51713" stroke-linecap="round"/>
<path d="M134.78 134.304C133.918 134.303 131.844 134.434 129.869 135.769C129.435 136.107 129.252 136.301 129.017 136.675C128.782 137.048 128.501 137.594 127.959 138.604" stroke="black" stroke-opacity="0.87" stroke-width="2.51713" stroke-linecap="round"/>
<path d="M148.268 135.051C146.5 135.049 142.205 135.173 141.047 135.493C140.196 135.728 138.932 138.297 137.995 140.874C137.279 142.841 138.092 144.93 138.906 146.024C139.838 147.277 141.293 147.641 143.024 147.938C144.768 148.237 145.993 147.608 146.936 147.078C148.298 146.312 149.002 144.539 149.684 142.846C150.411 141.038 149.697 138.46 148.858 136.76C148.537 136.26 148.108 135.786 147.588 135.249C147.37 135.02 147.249 134.879 147.123 134.733" stroke="black" stroke-opacity="0.87" stroke-width="2.51713" stroke-linecap="round"/>
<path d="M157.909 129.558C157.909 129.577 157.909 129.596 157.907 131.416C157.904 133.236 157.9 136.855 158.12 139.459C158.468 143.579 159.639 145.71 160.387 146.877C161.518 148.342 162.091 148.869 162.496 149.105C162.697 149.197 162.889 149.231 163.087 149.267" stroke="black" stroke-opacity="0.87" stroke-width="2.51713" stroke-linecap="round"/>
<path d="M185.671 129.75C185.671 129.769 185.671 129.788 185.669 131.608C185.666 133.427 185.662 137.047 185.882 139.651C186.23 143.771 187.401 145.902 188.149 147.068C189.28 148.533 189.853 149.06 190.258 149.296C190.459 149.388 190.651 149.423 190.849 149.458" stroke="black" stroke-opacity="0.87" stroke-width="2.51713" stroke-linecap="round"/>
<path d="M154.356 133.529C154.34 133.529 156.45 133.542 159.752 133.577C161.124 133.626 161.505 133.671 161.954 133.713C162.214 133.738 162.54 133.771 162.957 133.806" stroke="black" stroke-opacity="0.87" stroke-width="2.51713" stroke-linecap="round"/>
<path d="M182.118 133.721C182.102 133.721 184.212 133.734 187.514 133.768C188.886 133.818 189.267 133.863 189.716 133.904C189.976 133.929 190.302 133.963 190.719 133.998" stroke="black" stroke-opacity="0.87" stroke-width="2.51713" stroke-linecap="round"/>
<path d="M174.394 133.71C173.342 133.724 170.991 133.756 170.468 133.97C169.935 134.188 169.418 134.719 168.895 135.295C168.313 135.937 167.743 137.257 167.167 138.697C166.551 140.24 166.858 141.894 167.072 142.667C167.251 143.314 167.798 144.126 168.513 145.086C169.278 146.113 170.389 146.879 171.388 147.491C172.81 148.361 174.534 148.351 175.431 148.195C176.022 148.092 176.618 147.423 177.322 146.726C178.143 145.913 178.609 144.97 178.97 144.121C179.781 142.209 179.585 140.734 179.234 139.376C178.85 137.891 177.522 136.665 176.746 135.725C175.673 134.399 174.852 133.628 174.448 133.423C174.343 133.383 174.24 133.356 174.103 133.29" stroke="black" stroke-opacity="0.87" stroke-width="2.51713" stroke-linecap="round"/>
<path d="M195.711 134.071C195.711 134.063 195.73 134.389 196.08 135.818C196.354 136.933 197.054 138.778 197.807 140.546C198.561 142.315 199.406 143.936 200.039 145.044C201.718 147.982 203.564 147.667 204.023 148.279" stroke="black" stroke-opacity="0.87" stroke-width="2.51713" stroke-linecap="round"/>
<path d="M208.297 133.217C208.29 133.217 208.257 134.424 208.034 136.984C207.916 138.346 207.483 139.799 206.895 141.592C206.308 143.386 205.502 145.466 204.872 146.908C204.242 148.35 203.813 149.091 203.261 149.875C202.109 151.509 201.049 152.549 200.074 153.296C198.449 154.541 197.244 155.304 196.787 155.478C196.476 155.581 196.004 155.715 195.56 155.806C195.117 155.897 194.715 155.94 194.068 155.964" stroke="black" stroke-opacity="0.87" stroke-width="2.51713" stroke-linecap="round"/>
<path d="M212.977 133.4C212.977 133.48 212.977 133.559 212.979 135.974C212.981 138.389 212.985 143.138 213.122 146.778C213.26 150.418 213.53 152.806 213.672 154.068C213.814 155.33 213.819 155.394 213.824 155.46" stroke="black" stroke-opacity="0.87" stroke-width="2.51713" stroke-linecap="round"/>
<path d="M214.11 138.219C214.118 137.831 214.197 137.083 214.411 136.724C214.625 136.367 215.13 136.017 215.743 135.595C216.456 135.104 217.044 134.867 217.326 134.764C217.604 134.663 218.304 134.639 219.178 134.628C219.596 134.622 219.938 134.722 220.582 134.957C221.536 135.305 222.234 135.755 222.654 136.081C223.23 136.526 223.801 137.29 224.358 138.187C224.64 138.64 224.828 139.145 224.994 139.679C225.16 140.212 225.273 140.774 225.34 141.356C225.473 142.519 225.428 143.27 225.349 143.683C225.221 144.359 224.755 145.354 224.261 146.367C223.777 147.359 223.187 147.777 222.271 148.27C221.982 148.425 221.61 148.504 220.851 148.59C220.091 148.676 218.941 148.736 218.292 148.763C217.529 148.794 217.145 148.71 216.624 148.564C215.578 148.081 214.657 147.401 214.135 146.668C214.012 146.452 213.898 146.215 213.705 145.833" stroke="black" stroke-opacity="0.87" stroke-width="2.51713" stroke-linecap="round"/>
<path d="M109.744 133.146C109.744 133.225 109.744 133.304 109.746 135.719C109.748 138.135 109.752 142.883 109.889 146.523C110.027 150.163 110.297 152.551 110.439 153.813C110.581 155.075 110.586 155.139 110.591 155.205" stroke="black" stroke-opacity="0.87" stroke-width="2.51713" stroke-linecap="round"/>
<path d="M110.877 137.964C110.886 137.576 110.964 136.828 111.178 136.469C111.392 136.113 111.897 135.762 112.51 135.341C113.223 134.849 113.811 134.612 114.093 134.509C114.371 134.408 115.071 134.384 115.945 134.373C116.363 134.367 116.706 134.467 117.349 134.702C118.303 135.05 119.001 135.501 119.421 135.826C119.997 136.271 120.568 137.035 121.125 137.932C121.407 138.385 121.596 138.89 121.761 139.424C121.927 139.958 122.04 140.519 122.107 141.101C122.24 142.264 122.195 143.015 122.116 143.428C121.988 144.104 121.522 145.099 121.028 146.112C120.545 147.104 119.954 147.522 119.038 148.015C118.749 148.17 118.377 148.249 117.618 148.335C116.859 148.421 115.708 148.481 115.059 148.508C114.296 148.54 113.912 148.455 113.391 148.309C112.345 147.826 111.424 147.146 110.902 146.413C110.779 146.197 110.666 145.96 110.472 145.578" stroke="black" stroke-opacity="0.87" stroke-width="2.51713" stroke-linecap="round"/>
<path d="M231.439 140.54C231.484 140.545 231.53 140.549 233.189 140.578C234.848 140.606 238.12 140.659 240.035 140.723C241.95 140.788 242.409 140.862 242.698 140.905C243.091 140.964 243.257 140.978 243.372 141.002C243.487 141.025 243.479 140.031 243.328 138.255C243.221 136.992 242.97 136.338 242.814 136.002C242.637 135.622 242.339 135.292 241.93 134.923C241.33 134.38 240.552 133.991 239.937 133.711C239.665 133.587 239.463 133.531 238.947 133.476C238.43 133.422 237.601 133.379 237.088 133.361C236.403 133.337 235.732 133.498 234.765 133.806C234.286 133.959 233.857 134.182 233.393 134.45C232.426 135.008 231.702 135.628 231.226 136.14C230.766 136.633 230.489 137.16 230.243 137.675C230.103 137.967 229.983 138.346 229.852 138.962C229.721 139.578 229.595 140.426 229.53 141.155C229.464 141.883 229.463 142.466 229.491 142.923C229.537 143.699 229.784 144.392 230.07 145.048C230.462 145.949 231.061 146.424 231.608 146.85C231.956 147.122 232.503 147.432 233.256 147.776C234.008 148.121 234.963 148.472 235.817 148.714C236.67 148.957 237.394 149.079 238.034 149.144C239.207 149.261 239.851 149.2 240.268 149.094C241.963 148.661 242.391 148.283 242.631 147.957C242.841 147.541 242.992 147.208 243.041 147.08C243.065 147.019 243.087 146.968 243.101 146.847" stroke="black" stroke-opacity="0.87" stroke-width="2.51713" stroke-linecap="round"/>
<path d="M13 173C15.4891 173 17.9782 173.136 55.8439 172.553C93.7096 171.97 166.876 170.803 209.341 169.597C251.805 168.391 261.35 167.181 266.731 166.443C273.053 165.577 274.732 164.979 276.262 164.321C277.967 163.588 279.139 161.959 279.823 160.14C280.456 158.456 280.381 154.053 277.543 136.786C275.254 122.86 268.871 98.8951 265.814 84.5939C261.972 66.6203 262.741 61.4355 263.51 59.1762C265.2 54.2126 270.189 51.5638 277.297 47.7042C282.77 44.7328 292.562 40.7432 301.351 37.6196C310.14 34.496 317.767 32.6247 325.471 31.3258C333.176 30.0269 340.727 29.3572 343.449 29.0095C346.171 28.6617 343.835 28.6562 334.59 28.125C325.345 27.5937 309.262 26.5368 309.832 26.1639C310.403 25.791 328.114 26.1341 337.606 26.4038C347.099 26.6734 347.836 26.8591 347.974 27.203C349.015 29.7928 335.852 33.8505 322.656 41.6536C312.434 48.7957 307.487 52.8949 306.643 54.1382C306.305 54.7599 306.149 55.3627 306.251 55.1252" stroke="black" stroke-opacity="0.87" stroke-width="2" stroke-linecap="round"/>
</svg>
