<svg width="82" height="114" viewBox="0 0 82 114" fill="none" xmlns="http://www.w3.org/2000/svg">
<path d="M48.2313 87.9312C49.0282 86.4454 50.789 85.8706 52.4051 86.3511L65.3514 90.2007C67.0481 90.7051 68.1935 92.2622 67.9481 94.0152C66.9042 101.471 62.4736 117.753 49.7118 113.051C41.2243 109.924 44.1774 95.4891 48.2313 87.9312Z" fill="white"/>
<path d="M28.5594 59.8511C30.1755 59.3708 31.9354 59.9455 32.7323 61.4312C36.7862 68.989 39.7404 83.4243 31.2528 86.5513C18.4908 91.2531 14.0604 74.9714 13.0165 67.5152C12.771 65.7622 13.9164 64.2051 15.6131 63.7007L28.5594 59.8511Z" fill="white"/>
<path d="M67.1805 25.6021C70.1805 25.1021 84.894 27.7031 80.6805 58.6021C79.6302 66.3047 75.5567 76.7044 72.7508 81.732C71.4491 84.0644 68.7865 84.2714 66.1873 83.6558L55.8377 81.2046C52.8318 80.4926 50.1575 78.6972 49.2586 75.7417C47.7945 70.927 46.5744 62.5457 47.6805 50.1021C49.6804 27.6029 64.1798 26.1021 67.1805 25.6021Z" fill="white"/>
<path d="M0.75278 33.0513C-3.46071 2.15232 11.2528 -0.448711 14.2528 0.0512893C17.2533 0.551326 31.7528 2.05185 33.7528 24.5513C34.8588 36.995 33.6388 45.3764 32.1747 50.1909C31.2758 53.1465 28.6016 54.9419 25.5956 55.6538L15.2459 58.105C12.6468 58.7205 9.98514 58.5125 8.68344 56.1802C5.87757 51.1527 1.80323 40.7538 0.75278 33.0513Z" fill="white"/>
</svg>
