<svg width="85" height="99" viewBox="0 0 85 99" fill="none" xmlns="http://www.w3.org/2000/svg">
<path d="M8.53561 20.4155C3.57314 29.6612 6.51752 33.671 4.54791 42.0224C3.05277 48.3619 0.412508 51.5951 0.117141 58.1019C-0.308778 67.4847 0.117141 72 6.7633 81.2162C9.85385 85.5019 16.3197 94.0878 25.3726 97.2957C33.6905 100.243 47.9696 97.2957 47.9696 97.2957C47.9696 97.2957 60.8188 97.7982 67.9081 91.2659C74.9973 84.7336 80.7574 69.6591 83.8589 58.1019C86.9604 46.5448 77.7573 40.3721 72.7819 29.4603C68.5652 20.2122 71.8958 15.8932 60.8188 6.34594C49.7419 -3.20127 38.6649 0.31612 30.6895 2.32606C22.7141 4.336 14.7387 8.85836 8.53561 20.4155Z" fill="#D9D9D9"/>
</svg>
